<?xml version="1.0" standalone="no"?>
<!DOCTYPE svg PUBLIC "-//W3C//DTD SVG 20010904//EN"
 "http://www.w3.org/TR/2001/REC-SVG-20010904/DTD/svg10.dtd">
<svg version="1.0" xmlns="http://www.w3.org/2000/svg"
 width="750.000000pt" height="750.000000pt" viewBox="0 0 750.000000 750.000000"
 preserveAspectRatio="xMidYMid meet">
<metadata>
Created by potrace 1.14, written by Peter Selinger 2001-2017
</metadata>
<g transform="translate(0.000000,750.000000) scale(0.100000,-0.100000)"
fill="#000000" stroke="none">
<path d="M990 7489 c-146 -10 -262 -41 -400 -108 -93 -46 -117 -60 -138 -78
-7 -7 -16 -13 -20 -13 -4 0 -23 -14 -42 -31 -19 -17 -46 -41 -60 -53 -38 -32
-113 -123 -161 -196 -39 -58 -70 -122 -114 -240 -46 -121 -44 6 -47 -3010 -3
-2385 -1 -2844 11 -2890 24 -97 53 -184 79 -235 28 -57 93 -168 102 -175 4 -3
11 -12 16 -22 20 -37 102 -123 159 -167 135 -104 210 -143 425 -217 53 -18
138 -19 2910 -22 1848 -2 2881 1 2930 7 41 6 111 22 155 36 85 28 234 96 257
118 7 7 36 29 63 49 100 73 213 211 278 343 36 71 52 113 84 220 17 57 18 185
18 2930 0 2769 -1 2872 -19 2940 -41 156 -82 255 -132 322 -13 17 -24 35 -24
38 0 8 -9 19 -107 124 -59 64 -172 161 -187 161 -3 0 -25 14 -49 30 -25 17
-47 30 -51 30 -3 0 -29 11 -58 24 -87 38 -104 44 -190 67 l-83 22 -2755 1
c-1515 0 -2798 -2 -2850 -5z m5561 -455 c91 -32 198 -88 239 -124 14 -12 34
-30 45 -39 77 -63 161 -192 203 -310 l27 -76 3 -2655 c2 -1839 0 -2684 -8
-2749 -35 -310 -288 -574 -596 -621 -48 -7 -896 -10 -2749 -8 -2524 3 -2683 4
-2740 21 -86 25 -131 45 -205 92 -175 111 -293 288 -320 480 -8 58 -10 813 -8
2765 l3 2685 23 67 c35 104 99 205 182 289 115 116 268 190 430 208 41 5 1270
8 2730 7 l2655 -1 86 -31z"/>
<path d="M3475 6420 c-363 -55 -550 -106 -810 -221 -157 -68 -280 -137 -437
-245 -75 -51 -145 -100 -155 -108 -10 -8 -47 -38 -83 -67 -98 -79 -296 -282
-382 -389 -100 -125 -206 -294 -284 -451 -35 -70 -64 -131 -64 -134 0 -4 -7
-21 -15 -38 -19 -42 -78 -223 -104 -317 -90 -334 -106 -780 -41 -1135 31 -170
90 -375 140 -490 40 -92 121 -261 149 -310 69 -120 200 -310 253 -366 7 -8 42
-48 78 -89 201 -231 462 -434 772 -598 263 -140 608 -244 968 -292 113 -15
489 -15 599 0 207 29 463 81 536 110 11 5 56 21 100 36 67 23 231 92 325 137
112 53 330 197 470 310 100 80 281 259 345 341 17 21 35 43 41 50 18 19 137
192 175 253 88 140 214 413 253 548 10 33 22 71 27 85 20 58 69 273 83 365 34
226 41 396 23 600 -17 194 -29 264 -73 440 -134 534 -450 1016 -909 1390 -152
124 -405 278 -575 349 -25 10 -63 26 -85 36 -99 41 -128 52 -250 89 -285 86
-450 111 -765 116 -135 2 -272 0 -305 -5z m93 -237 c-20 -5 -23 -18 -8 -28 16
-10 12 -21 -14 -34 l-24 -13 21 -21 c15 -15 17 -22 8 -25 -7 -2 -17 2 -22 9
-8 12 -13 6 -11 -12 1 -4 -27 -10 -61 -13 -34 -4 -78 -11 -97 -16 -19 -5 -80
-19 -135 -31 -106 -23 -304 -86 -395 -126 -52 -23 -211 -107 -292 -156 -44
-26 -216 -147 -233 -163 -6 -6 -38 -33 -70 -59 -75 -60 -208 -196 -288 -295
-34 -41 -70 -84 -80 -95 -10 -11 -28 -36 -40 -55 -11 -19 -24 -37 -27 -40 -7
-6 -116 -197 -144 -252 -17 -34 -20 -36 -31 -21 -7 10 -10 23 -8 31 4 8 0 13
-8 11 -22 -3 -49 12 -49 27 0 17 -20 19 -21 2 0 -10 -2 -10 -5 -1 -13 32 176
352 271 459 6 7 26 31 45 55 96 122 337 345 453 422 175 115 238 153 335 202
61 30 112 55 116 55 3 0 29 11 58 24 178 80 532 164 693 164 44 0 72 -2 63 -5z
m200 -360 c-32 -3 -48 -9 -48 -18 0 -7 6 -15 13 -18 6 -2 -28 -7 -78 -11 -280
-22 -546 -92 -769 -204 -313 -157 -638 -447 -829 -740 -72 -111 -125 -205
-132 -235 -4 -14 -14 -27 -23 -29 -14 -4 -17 3 -16 47 2 119 215 440 430 647
194 187 491 375 700 443 43 14 88 30 99 34 48 20 178 54 275 71 75 13 150 18
265 17 88 0 139 -2 113 -4z m89 1 c-3 -3 -12 -4 -19 -1 -8 3 -5 6 6 6 11 1 17
-2 13 -5z m-98 -348 c-6 -6 -88 -15 -138 -15 -62 -1 -40 -20 28 -25 71 -5 72
-11 3 -14 -150 -5 -363 -49 -469 -98 -17 -8 -35 -14 -41 -14 -20 0 -209 -99
-277 -145 -252 -171 -436 -375 -577 -640 -26 -49 -48 -82 -48 -72 0 10 -4 16
-9 13 -5 -3 -14 1 -21 9 -8 10 -9 15 -2 15 6 0 9 6 6 13 -7 20 78 184 146 278
261 366 624 597 1065 679 86 16 347 28 334 16z m-99 -326 c-25 -8 -25 -8 -2
-9 13 -1 21 -5 18 -10 -4 -5 0 -12 6 -15 10 -5 10 -7 1 -12 -19 -9 -16 -44 4
-44 14 0 13 -4 -6 -21 -15 -14 -44 -24 -89 -30 -71 -8 -183 -34 -217 -49 -11
-5 -37 -14 -57 -20 -109 -33 -299 -148 -406 -245 -74 -67 -188 -211 -238 -300
-43 -77 -84 -160 -84 -171 0 -17 -3 -17 -47 1 -20 9 -43 13 -50 11 -8 -3 -18
5 -24 18 -9 19 -2 42 43 142 91 202 258 404 429 521 211 143 483 237 704 240
34 1 36 0 15 -7z m335 -424 c202 -55 395 -183 522 -348 49 -64 115 -191 139
-265 57 -182 58 -413 2 -583 -48 -148 -115 -258 -222 -365 -169 -169 -344
-250 -593 -277 -234 -24 -485 39 -668 170 -73 52 -179 166 -236 252 -209 317
-184 786 59 1091 129 163 328 286 542 334 87 20 369 14 455 -9z m945 -1456 c3
-3 14 -10 25 -16 24 -14 22 -30 -14 -104 -63 -131 -197 -290 -328 -387 -76
-56 -85 -60 -82 -40 4 36 -2 49 -20 44 -15 -4 -21 3 -29 34 -9 36 -8 40 22 62
47 37 158 147 198 197 50 64 158 226 158 239 0 9 55 -14 70 -29z m290 -263
c27 8 -83 -176 -167 -279 -49 -60 -182 -188 -196 -188 -2 0 -7 10 -11 22 -4
18 -8 20 -18 10 -6 -6 -16 -12 -21 -12 -5 0 30 39 78 88 90 89 190 217 260
330 36 59 40 62 53 45 7 -10 17 -17 22 -16z m266 -261 c3 -8 0 -24 -6 -37 -36
-67 -147 -207 -235 -296 -79 -81 -107 -103 -128 -103 -48 0 -43 26 15 83 69
67 167 181 246 285 62 81 95 102 108 68z m237 -245 c56 -53 55 -65 -20 -157
-17 -21 -59 -74 -93 -117 -34 -42 -100 -112 -145 -154 -68 -63 -90 -78 -119
-80 -20 -1 -38 2 -41 8 -4 5 -11 7 -16 3 -6 -3 -19 2 -30 12 -19 17 -19 19 -3
31 10 7 13 13 7 13 -6 0 40 51 101 113 99 99 216 236 285 335 24 35 30 34 74
-7z"/>
<path d="M3707 3973 c-41 -6 -104 -71 -112 -116 -11 -60 3 -107 44 -148 65
-65 154 -63 221 6 32 33 35 41 35 98 0 49 -5 68 -22 90 -46 59 -97 80 -166 70z"/>
</g>
</svg>
